<svg width="26" height="24" viewBox="0 0 26 24" fill="none" xmlns="http://www.w3.org/2000/svg">
<path fill-rule="evenodd" clip-rule="evenodd" d="M5.42584 13.6396C5.00837 13.6759 4.59695 13.6955 4.18698 13.6965C3.572 13.6983 2.95897 13.6173 2.34664 13.5863C2.08684 13.5733 1.40868 13.55 1.3125 13.5297C0.4747 13.3482 0.400048 12.6543 0.392979 12.4525C0.38687 12.3547 0.355684 11.3526 1.47436 11.2269C2.84221 11.0722 4.20495 11.097 5.52569 11.2968C6.67235 11.1705 7.82675 10.8897 8.88429 10.4815C13.0905 8.8568 13.7826 5.17221 14.0692 1.14293C14.1097 0.522968 14.637 0.0478452 15.2551 0.0649281C15.8779 0.082383 16.3777 0.586475 16.3836 1.20738C16.4202 3.47543 17.9042 7.61352 19.6722 9.14507C20.0423 9.46547 20.9775 9.70972 21.8899 10.0066C23.1562 10.4205 24.4038 10.892 24.9074 11.3484C24.9858 11.4172 25.7767 12.2395 25.8836 12.4745C26.1363 13.0388 25.9303 13.4577 25.7532 13.6908C25.5761 13.9239 25.2436 14.1772 24.721 14.2469C24.1748 14.3199 23.0812 14.1333 22.8438 14.1324C21.9823 14.1293 20.2886 14.1654 18.8166 14.3988C18.024 14.5246 17.2905 14.6678 16.9075 14.9715C15.4896 16.0956 15.5259 18.0781 15.6103 19.7519C15.6181 19.9439 15.6306 20.1364 15.6385 20.328C15.7833 21.0183 15.8738 21.7461 15.9009 22.5099C15.9433 23.6633 14.8776 23.7667 14.8074 23.7713C14.653 23.7803 13.8599 23.7962 13.6144 22.9097C13.5896 22.8131 13.4926 22.1076 13.4539 21.8357C13.4005 21.4569 13.3659 21.0755 13.3361 20.693C12.4372 16.6947 9.20131 14.3022 5.42584 13.6396ZM9.74029 12.6389C12.9038 11.4111 14.5551 9.29454 15.4345 6.69908L15.4345 6.69953C16.1669 8.42312 17.129 10.0147 18.1524 10.8995C18.54 11.2353 19.346 11.5796 20.2561 11.9047C19.3798 11.9708 18.4441 12.08 17.6379 12.2588C16.7179 12.462 15.9431 12.7728 15.4655 13.1508C14.5452 13.8808 13.9879 14.8449 13.6652 15.9037C12.6258 14.5216 11.2791 13.4286 9.74029 12.6389Z" fill="#1C2B32"/>
</svg>
