<svg width="84" height="71" viewBox="0 0 84 71" fill="none" xmlns="http://www.w3.org/2000/svg">
<mask id="path-1-inside-1_105_4436" fill="white">
<path d="M75.2845 0.168452C78.6173 5.04948 80.9553 10.5427 82.1648 16.3344C83.3743 22.1262 83.4318 28.103 82.3339 33.9237C81.236 39.7444 79.0042 45.295 75.766 50.2585C72.5278 55.222 68.3466 59.5013 63.461 62.852C58.5755 66.2027 53.0814 68.5591 47.2923 69.7869C41.5033 71.0146 35.5327 71.0896 29.7214 70.0075C23.9101 68.9253 18.372 66.7074 13.4233 63.4801C8.47451 60.2529 4.21203 56.0796 0.879188 51.1986L17.6835 39.6735C19.5109 42.3498 21.848 44.6381 24.5614 46.4076C27.2749 48.1771 30.3114 49.3932 33.4978 49.9865C36.6841 50.5799 39.9578 50.5388 43.132 49.8656C46.3062 49.1924 49.3186 47.9003 51.9974 46.0631C54.6761 44.2259 56.9687 41.8796 58.7442 39.1581C60.5198 36.4366 61.7434 33.3932 62.3454 30.2016C62.9474 27.0101 62.9159 23.733 62.2527 20.5574C61.5895 17.3817 60.3076 14.3698 58.4802 11.6935L75.2845 0.168452Z"/>
</mask>
<path d="M75.2845 0.168452C78.6173 5.04948 80.9553 10.5427 82.1648 16.3344C83.3743 22.1262 83.4318 28.103 82.3339 33.9237C81.236 39.7444 79.0042 45.295 75.766 50.2585C72.5278 55.222 68.3466 59.5013 63.461 62.852C58.5755 66.2027 53.0814 68.5591 47.2923 69.7869C41.5033 71.0146 35.5327 71.0896 29.7214 70.0075C23.9101 68.9253 18.372 66.7074 13.4233 63.4801C8.47451 60.2529 4.21203 56.0796 0.879188 51.1986L17.6835 39.6735C19.5109 42.3498 21.848 44.6381 24.5614 46.4076C27.2749 48.1771 30.3114 49.3932 33.4978 49.9865C36.6841 50.5799 39.9578 50.5388 43.132 49.8656C46.3062 49.1924 49.3186 47.9003 51.9974 46.0631C54.6761 44.2259 56.9687 41.8796 58.7442 39.1581C60.5198 36.4366 61.7434 33.3932 62.3454 30.2016C62.9474 27.0101 62.9159 23.733 62.2527 20.5574C61.5895 17.3817 60.3076 14.3698 58.4802 11.6935L75.2845 0.168452Z" stroke="#48C287" stroke-width="290" mask="url(#path-1-inside-1_105_4436)"/>
</svg>
